<?xml version="1.0" encoding="utf-8"?>
<!-- Generator: Adobe Illustrator 23.0.1, SVG Export Plug-In . SVG Version: 6.00 Build 0)  -->
<svg version="1.1" id="Capa_1" xmlns="http://www.w3.org/2000/svg" xmlns:xlink="http://www.w3.org/1999/xlink" x="0px" y="0px"
	 viewBox="0 0 60 60" style="enable-background:new 0 0 60 60;" xml:space="preserve">
<style type="text/css">
	.st0{fill:#241F20;}
	.st1{fill:#FFFFFF;}
	.st2{fill:#ED2A41;}
</style>
<path class="st0" d="M30,0c-8.1,0-9.2,0-12.4,0.2c-3.2,0.1-5.4,0.7-7.3,1.4C8.4,2.3,6.7,3.4,5,5c-1.7,1.7-2.7,3.3-3.5,5.3
	c-0.7,1.9-1.2,4.1-1.4,7.3C0,20.8,0,21.9,0,30c0,8.1,0,9.2,0.2,12.4c0.1,3.2,0.7,5.4,1.4,7.3c0.8,2,1.8,3.6,3.5,5.3
	c1.7,1.7,3.3,2.7,5.3,3.5c1.9,0.7,4.1,1.2,7.3,1.4C20.8,60,21.9,60,30,60s9.2,0,12.4-0.2c3.2-0.1,5.4-0.7,7.3-1.4
	c2-0.8,3.6-1.8,5.3-3.5c1.7-1.7,2.7-3.3,3.5-5.3c0.7-1.9,1.2-4.1,1.4-7.3C60,39.2,60,38.1,60,30s0-9.2-0.2-12.4
	c-0.1-3.2-0.7-5.4-1.4-7.3c-0.8-2-1.8-3.6-3.5-5.3c-1.7-1.7-3.3-2.7-5.3-3.5c-1.9-0.7-4.1-1.2-7.3-1.4C39.2,0,38.1,0,30,0L30,0z"/>
<g>
	<g>
		<path class="st1" d="M30,14.6c-8.5,0-15.4,6.9-15.4,15.4S21.5,45.4,30,45.4S45.4,38.5,45.4,30S38.5,14.6,30,14.6z M30,40
			c-5.5,0-10-4.5-10-10c0-5.5,4.5-10,10-10c5.5,0,10,4.5,10,10C40,35.5,35.5,40,30,40z"/>
		<circle class="st1" cx="46" cy="14" r="3.6"/>
	</g>
</g>
<path class="st2" d="M50.9,23.1c0,0.1-0.3,0.3-0.4,0.3c-0.2,0.1-0.5,0.3-0.7,0.4c-0.5,0.3-0.9,0.5-1.4,0.8c-0.9,0.5-1.8,0.9-2.8,1.3
	c-1.8,0.7-3.4,1.9-5,3c-1.5,1-3,2-4.4,3.1c-0.8,0.6-1.8,1.3-2.4,2.2C32,37.1,30.6,37,30.6,37s-2.5-3.2-6.1-3.2c0,0,2.5-4.6,6.1-5.9
	c2.5-1,5.4-1.2,8-1.7c2.6-0.4,5.3-0.7,7.7-1.5c0.7-0.2,1.4-0.5,2.1-0.7c0.4-0.1,0.7-0.3,1.1-0.5c0.3-0.1,0.5-0.3,0.8-0.4
	C50.4,23,50.8,22.9,50.9,23.1z"/>
</svg>
